<svg xmlns="http://www.w3.org/2000/svg" xmlns:xlink="http://www.w3.org/1999/xlink" width="48" zoomAndPan="magnify" viewBox="0 0 36 36.000001" height="48" preserveAspectRatio="xMidYMid meet" version="1.0"><defs><clipPath id="id1"><path d="M 6.269531 2.003906 L 27.433594 2.003906 L 27.433594 33.382812 L 6.269531 33.382812 Z M 6.269531 2.003906 " clip-rule="nonzero"/></clipPath><clipPath id="id2"><path d="M 24.378906 0 L 34.59375 0 L 34.59375 10.945312 L 24.378906 10.945312 Z M 24.378906 0 " clip-rule="nonzero"/></clipPath></defs><g clip-path="url(#id1)"><path fill="#ff1616" d="M 24.816406 15.488281 C 24.816406 15.488281 24.804688 15.476562 24.78125 15.445312 C 24.710938 15.367188 24.648438 15.296875 24.578125 15.21875 C 23.3125 13.792969 17.585938 9.347656 16.890625 2.007812 C 16.890625 2.007812 16.242188 6.65625 8.957031 15.488281 C 7.273438 17.4375 6.269531 20.015625 6.363281 22.839844 C 6.539062 28.339844 10.9375 32.839844 16.394531 33.097656 C 22.4375 33.378906 27.433594 28.519531 27.433594 22.480469 C 27.433594 19.800781 26.445312 17.359375 24.816406 15.488281 Z M 24.816406 15.488281 " fill-opacity="1" fill-rule="nonzero"/></g><path fill="#ffffff" d="M 16.96875 28.898438 C 16.832031 28.898438 16.734375 28.800781 16.71875 28.671875 L 15.71875 17.121094 L 14.382812 25.132812 C 14.359375 25.246094 14.261719 25.339844 14.148438 25.339844 C 14.035156 25.347656 13.929688 25.269531 13.898438 25.152344 L 13.019531 21.613281 L 12.308594 23.328125 C 12.273438 23.417969 12.179688 23.476562 12.082031 23.476562 L 9.6875 23.476562 C 9.550781 23.476562 9.4375 23.363281 9.4375 23.226562 C 9.4375 23.089844 9.550781 22.976562 9.6875 22.976562 L 11.910156 22.976562 L 12.847656 20.726562 C 12.890625 20.625 12.988281 20.570312 13.097656 20.574219 C 13.203125 20.582031 13.296875 20.660156 13.316406 20.761719 L 14.085938 23.863281 L 15.539062 15.101562 C 15.5625 14.980469 15.667969 14.886719 15.796875 14.894531 C 15.925781 14.902344 16.023438 14.996094 16.03125 15.125 L 17.003906 26.300781 L 17.878906 19.328125 C 17.890625 19.207031 17.992188 19.113281 18.113281 19.105469 C 18.234375 19.101562 18.339844 19.179688 18.367188 19.300781 L 19.433594 23.640625 L 19.988281 19.660156 C 20 19.535156 20.101562 19.449219 20.222656 19.445312 C 20.34375 19.4375 20.449219 19.523438 20.476562 19.636719 L 21.257812 23.132812 L 24.085938 23.132812 C 24.222656 23.132812 24.335938 23.246094 24.335938 23.382812 C 24.335938 23.519531 24.222656 23.632812 24.085938 23.632812 L 21.058594 23.632812 C 20.945312 23.632812 20.839844 23.554688 20.820312 23.441406 L 20.292969 21.085938 L 19.746094 24.996094 C 19.730469 25.117188 19.632812 25.203125 19.511719 25.210938 C 19.390625 25.21875 19.285156 25.140625 19.253906 25.015625 L 18.203125 20.71875 L 17.210938 28.671875 C 17.203125 28.808594 17.097656 28.898438 16.96875 28.898438 Z M 16.96875 28.898438 " fill-opacity="1" fill-rule="nonzero"/><g clip-path="url(#id2)"><path fill="#ffffff" d="M 34.054688 5.570312 C 34.054688 5.871094 34.027344 6.171875 33.96875 6.464844 C 33.910156 6.761719 33.824219 7.050781 33.710938 7.328125 C 33.59375 7.609375 33.457031 7.875 33.289062 8.125 C 33.125 8.375 32.933594 8.609375 32.722656 8.820312 C 32.511719 9.035156 32.28125 9.226562 32.035156 9.394531 C 31.785156 9.5625 31.523438 9.703125 31.25 9.816406 C 30.972656 9.933594 30.6875 10.019531 30.394531 10.078125 C 30.101562 10.140625 29.808594 10.167969 29.507812 10.167969 C 29.210938 10.167969 28.914062 10.140625 28.621094 10.078125 C 28.328125 10.019531 28.042969 9.933594 27.769531 9.816406 C 27.492188 9.703125 27.230469 9.5625 26.980469 9.394531 C 26.734375 9.226562 26.503906 9.035156 26.292969 8.820312 C 26.082031 8.609375 25.894531 8.375 25.726562 8.125 C 25.5625 7.875 25.421875 7.609375 25.308594 7.328125 C 25.191406 7.050781 25.105469 6.761719 25.046875 6.464844 C 24.988281 6.171875 24.960938 5.871094 24.960938 5.570312 C 24.960938 5.265625 24.988281 4.96875 25.046875 4.671875 C 25.105469 4.375 25.191406 4.089844 25.308594 3.808594 C 25.421875 3.53125 25.5625 3.265625 25.726562 3.015625 C 25.894531 2.761719 26.082031 2.53125 26.292969 2.316406 C 26.503906 2.101562 26.734375 1.914062 26.980469 1.746094 C 27.230469 1.578125 27.492188 1.4375 27.769531 1.320312 C 28.042969 1.203125 28.328125 1.117188 28.621094 1.058594 C 28.914062 1 29.210938 0.96875 29.507812 0.96875 C 29.808594 0.96875 30.101562 1 30.394531 1.058594 C 30.6875 1.117188 30.972656 1.203125 31.25 1.320312 C 31.523438 1.4375 31.785156 1.578125 32.035156 1.746094 C 32.28125 1.914062 32.511719 2.101562 32.722656 2.316406 C 32.933594 2.53125 33.125 2.761719 33.289062 3.015625 C 33.457031 3.265625 33.59375 3.53125 33.710938 3.808594 C 33.824219 4.089844 33.910156 4.375 33.96875 4.671875 C 34.027344 4.96875 34.054688 5.265625 34.054688 5.570312 Z M 34.054688 5.570312 " fill-opacity="1" fill-rule="nonzero"/><path fill="#4fd1d9" d="M 33.335938 2.277344 C 32.988281 1.863281 32.585938 1.519531 32.132812 1.234375 C 31.675781 0.953125 31.1875 0.75 30.664062 0.625 C 30.144531 0.5 29.617188 0.457031 29.085938 0.503906 C 28.550781 0.546875 28.039062 0.671875 27.542969 0.878906 C 26.628906 1.269531 25.890625 1.875 25.324219 2.699219 C 25.210938 2.859375 25.109375 3.027344 25.015625 3.199219 C 24.621094 3.933594 24.414062 4.71875 24.394531 5.554688 C 24.394531 5.605469 24.386719 5.65625 24.386719 5.707031 C 24.386719 6.292969 24.480469 6.863281 24.667969 7.417969 C 24.855469 7.96875 25.128906 8.476562 25.484375 8.9375 C 25.839844 9.398438 26.261719 9.789062 26.75 10.105469 C 27.234375 10.421875 27.761719 10.652344 28.324219 10.789062 C 28.707031 10.882812 29.097656 10.929688 29.492188 10.929688 C 32.3125 10.929688 34.597656 8.589844 34.597656 5.707031 C 34.597656 4.40625 34.179688 3.261719 33.335938 2.277344 Z M 31.386719 6.25 L 30.113281 6.25 L 30.113281 7.578125 L 28.804688 7.578125 L 28.804688 6.25 L 27.53125 6.25 L 27.53125 4.957031 L 28.804688 4.957031 L 28.804688 3.628906 L 30.113281 3.628906 L 30.113281 4.957031 L 31.386719 4.957031 Z M 31.386719 6.25 " fill-opacity="1" fill-rule="nonzero"/></g></svg>